<?xml version="1.0" encoding="UTF-8"?>
<svg xmlns="http://www.w3.org/2000/svg" viewBox="-18 55 494 494">
  <style>
    .st0 { fill: #fff; }
    .st2 { stroke: #000; stroke-miterlimit: 10; stroke-width: 5.39px; }
  </style>
  <path class="st2" d="M224.79,248.34c.48.18,1.01.18,1.49,0h6.4c.48.18,1.01.18,1.49,0h1.28c27.39,0,55.1,11.02,77.2,28.1,25.55,19.75,43.66,48.3,49.99,80.06,2.22,11.15,2.28,20.66,2.24,31.7-.11,28.11-11.05,56.96-28.73,79.39-19.42,24.63-46.84,41.96-77.52,48.67-10.3,2.25-19.42,2.82-29.54,2.84-13.27.03-25.81-1.43-39.15-5.52-31.64-9.69-59.02-30.91-76.31-59.15-11.84-19.33-19.12-42.24-19.45-64.61v-1.92c.18-.55.18-1.15,0-1.71v-5.98c.18-.41.18-.87,0-1.28v-.64c.08-.37.15-.73.21-1.07-.24-17.89,5.07-36.79,12.97-53,21.59-44.28,67.04-74.75,115.71-75.89h1.71ZM214.61,330.42l2.71.24c2.09.18,4.12.33,6.19.24v-65.45c-.82-.13-1.47.39-2.05.91l-1.79,1.63c-3.63,3.31-5.34,4.9-8.73,8.51l-2.72,2.9c-11.96,12.76-21.14,27.75-27.98,44.1,11.31,3.58,22.63,5.89,34.37,6.93ZM250.39,279.03l-2.37-2.53c-1.95-2.08-3.94-4.11-6.04-6.05l-2.23-2.07-2.13-1.91c-.62-.56-1.32-1.11-2.16-1.03v65.46c2.09.1,3.87-.04,5.99-.22l3.16-.27c11.59-.99,22.88-3.3,34.12-6.9-6.9-16.48-16.21-31.55-28.32-44.48ZM141.09,305.09c8.76,5.67,18.08,10.47,27.99,14.44,7.55-18.16,18.04-34.46,31.08-48.83.67-.74,1.42-1.18,1.75-2.13-19.37,4.6-37.49,13.52-51.71,27.22l-4.14,3.99c-.39.37-.7.67-1.08,1.07l-3.24,3.35-.65.89ZM314.33,301.24c-.76-.78-1.28-1.67-2.22-2.14-1.11-1.18-2.14-2.2-3.36-3.3-14.68-13.22-32.31-22.63-51.73-27.24.65,1.24,1.65,1.99,2.58,3.03,12.68,14.16,22.88,30.15,30.28,47.93,9.87-3.96,19.12-8.71,27.95-14.41-.19-.43-.47-.68-.7-1.03l-2.8-2.85ZM156.58,374.15c-.27-1.24.05-2.18.11-3.34,1.05-13.73,3.89-27.15,8.21-40.21-11.17-4.46-21.54-9.89-31.31-16.27-13.03,18-20.62,39.1-22.14,61.17.19.83-.15,1.39-.18,2.16h45.07c-.07-1.35-.15-2.35.25-3.51ZM302.73,377.66h44.98c-.15-.95-.38-1.82-.14-2.8-.4-1.07-.18-2.04-.39-3.14-2.07-20.77-9.53-40.41-21.8-57.4-9.8,6.42-20.28,11.87-31.34,16.29,4.44,13.21,7.15,26.52,8.24,40.19.04,1.17.38,2.1.11,3.25.43,1.19.21,2.37.34,3.6ZM223.51,342.89c-1.08.09-1.75-.15-2.56-.21-1.29-.09-2.56.13-3.82-.3-1.07.22-1.94-.02-3.04-.12-12.96-1.13-25.65-3.71-38.02-7.67-4.03,11.96-6.46,24.05-7.56,36.45-.11,1.21.02,2.25-.33,3.4.12,1.11.12,2.14-.13,3.22h55.46s0-34.77,0-34.77ZM235.47,377.66h55.45c-.25-1.08-.25-2.11-.13-3.22-.34-1.15-.23-2.2-.33-3.4-1.1-12.4-3.53-24.48-7.55-36.45-12.37,3.95-25.06,6.55-38.02,7.66-1.1.09-1.97.34-3.04.12-1.26.44-2.52.21-3.82.31-.87.07-1.64.3-2.56.2l.02,34.78ZM156.76,398.74c-.06-1.05,0-1.7-.31-2.51.19-1.11-.11-2.13-.13-3.2l-.05-3.42h-45c.04.77.38,1.33.18,2.17,1.54,22.03,9.1,43.2,22.16,61.15,9.92-6.46,20.03-11.74,30.92-16.11-4.04-12.5-6.66-25.05-7.76-38.08ZM216.87,424.78c1.46-.1,2.67-.31,4.09-.12.84-.32,1.65-.27,2.55-.28v-34.78s-55.44,0-55.44,0c-.18.82,0,1.56.2,2.33-.15,1.49.02,2.77.14,4.31.97,12.41,3.33,24.58,7.25,36.55,13.53-4.35,27.2-7.01,41.19-8.02ZM290.36,398.4l.19-2.63c.09-1.27.35-2.51.12-3.83.23-.79.39-1.52.22-2.34h-55.43s0,34.77,0,34.77c.9,0,1.71-.03,2.55.28,1.5-.19,2.77.03,4.31.14,13.92,1.01,27.52,3.66,40.97,7.99,3.69-11.28,6.24-22.69,7.08-34.39ZM294.43,436.82c11.14,4.46,21.32,9.84,30.94,16.11,12.83-17.72,20.39-38.4,22.05-60.13.14-1.13-.01-2.09.29-3.19h-45.01s-.05,3.42-.05,3.42c-.02,1.07-.32,2.09-.12,3.2-.4.93-.18,1.78-.34,2.77-1.12,12.86-3.7,25.37-7.75,37.81ZM221.01,501.56l2.49.29v-65.48c-2.63-.26-3.95.33-6.19.13-.93.35-1.78.24-2.77.34-11.83,1.1-23.34,3.44-34.78,7.08,6.81,16.63,16.53,31.95,28.56,45.35.84.93,1.66,1.59,2.37,2.61,1.17,1.26,9.44,9.58,10.33,9.68ZM250.81,489.07c12.21-13.13,21.51-28.43,28.4-45.16-12.02-3.89-24.46-6.27-37.13-7.3-1.21-.1-2.26.05-3.41-.31l-3.21.06v65.53s2.5-.33,2.5-.33c.97-.13,9.05-8.41,10.28-9.74l2.57-2.76ZM146.1,467.53l3.89,3.73c14.08,13.5,31.88,22.44,50.67,27.13-13.69-14.94-24.53-32-32.04-50.49-9.7,3.98-18.79,8.62-27.5,14.25.75,1.14,1.69,2,2.63,2.95l2.35,2.43ZM313.82,466.57l3.19-3.29.84-1.12c-8.76-5.66-17.93-10.35-27.51-14.25-7.62,18.69-18.46,35.7-32.04,50.49,18.92-4.71,36.26-14.08,50.66-27.14l3.51-3.34c.46-.44.83-.82,1.34-1.35Z"/>
  <path d="M230.84,115.6l38.45,48.63c.09.11.17.22.26.32,9.02,10.91,24.01,17.16,41.14,17.16,12.51,0,24.01-3.36,32.91-9.34l-.08,25.68c-36.08-6.11-72.8-9.29-109.33-9.48-1.13,0-2.26,0-3.39,0-37.68,0-75.54,3.19-112.75,9.49l-.13-25.99c8.95,6.17,20.63,9.64,33.34,9.64,17.2,0,32.24-6.3,41.26-17.28.09-.11.18-.22.27-.33l38.06-48.51M230.78,84.9l-52.96,67.49c-5.68,6.92-16.1,10.34-26.58,10.34-11.3,0-22.68-3.97-28.3-11.82l-24.4-51.34.55,110.21c0,2.58,1.04,4.91,2.73,6.59,2.67,2.67,5.97,2.73,6.59,2.73,33.58-6.38,74.96-11.52,122.36-11.52,1.09,0,2.19,0,3.29,0,45.92.23,86.14,5.26,119.07,11.51,5.15,0,9.33-4.18,9.33-9.33l.36-110.21-23.76,51.26c-5.62,7.89-17.04,11.9-28.39,11.9-10.44,0-20.81-3.39-26.5-10.27l-53.41-67.55h0Z"/>
  <path d="M230.78,141.59c-9.03,0-36,39.49-30.77,39.72.16,0,.48,0,.94-.02,19.88-.8,39.78-.8,59.66,0,.46.02.78.03.94.02,5.23-.23-21.74-39.72-30.77-39.72Z"/>
  <path d="M352.16,295.35c-34.63-38.61-78.62-59.64-122.62-59.45-44-.12-87.99,20.99-122.62,59.6-4.41,4.88-7.8,4.97-7.81-.18,0-.61,0-1.82,0-1.82.13-17.45.26-34.89.39-52.34.04-5.62,4.55-11.16,10.11-12.3,79.26-16.23,160.99-16.2,240.24.08,5.59,1.15,10.11,6.74,10.11,12.38,0,16.67,0,48.26,0,52.03v1.82c0,5.16-3.4,5.07-7.81.19Z"/>
  <path class="st0" d="M345.21,266.43v-23.35c-15.35-3.03-30.78-5.44-46.27-7.25,15.49,9.59,30.92,19.8,46.27,30.61Z"/>
  <path class="st0" d="M114.61,266.28v-23.35c15.35-3.01,30.79-5.4,46.27-7.2-15.49,9.57-30.93,19.76-46.27,30.55Z"/>
</svg>
