<?xml version="1.0" encoding="UTF-8"?>
<svg xmlns="http://www.w3.org/2000/svg" xmlns:xlink="http://www.w3.org/1999/xlink" version="1.1" viewBox="0 0 1757.31 586.62">
  <!-- Generator: Adobe Illustrator 30.1.0, SVG Export Plug-In . SVG Version: 2.1.1 Build 136)  -->
  <defs>
    <style>
      .st0 {
        fill: #fff;
      }

      .st1 {
        fill: #1a181b;
      }

      .st2 {
        stroke: #000;
        stroke-miterlimit: 10;
        stroke-width: 5.39px;
      }

      .st3 {
        display: none;
      }
    </style>
  </defs>
  <g id="Crown_example">
    <g>
      <path class="st2" d="M224.79,248.34c.48.18,1.01.18,1.49,0h6.4c.48.18,1.01.18,1.49,0h1.28c27.39,0,55.1,11.02,77.2,28.1,25.55,19.75,43.66,48.3,49.99,80.06,2.22,11.15,2.28,20.66,2.24,31.7-.11,28.11-11.05,56.96-28.73,79.39-19.42,24.63-46.84,41.96-77.52,48.67-10.3,2.25-19.42,2.82-29.54,2.84-13.27.03-25.81-1.43-39.15-5.52-31.64-9.69-59.02-30.91-76.31-59.15-11.84-19.33-19.12-42.24-19.45-64.61v-1.92c.18-.55.18-1.15,0-1.71v-5.98c.18-.41.18-.87,0-1.28v-.64c.08-.37.15-.73.21-1.07-.24-17.89,5.07-36.79,12.97-53,21.59-44.28,67.04-74.75,115.71-75.89h1.71ZM214.61,330.42l2.71.24c2.09.18,4.12.33,6.19.24v-65.45c-.82-.13-1.47.39-2.05.91l-1.79,1.63c-3.63,3.31-5.34,4.9-8.73,8.51l-2.72,2.9c-11.96,12.76-21.14,27.75-27.98,44.1,11.31,3.58,22.63,5.89,34.37,6.93ZM250.39,279.03l-2.37-2.53c-1.95-2.08-3.94-4.11-6.04-6.05l-2.23-2.07-2.13-1.91c-.62-.56-1.32-1.11-2.16-1.03v65.46c2.09.1,3.87-.04,5.99-.22l3.16-.27c11.59-.99,22.88-3.3,34.12-6.9-6.9-16.48-16.21-31.55-28.32-44.48ZM141.09,305.09c8.76,5.67,18.08,10.47,27.99,14.44,7.55-18.16,18.04-34.46,31.08-48.83.67-.74,1.42-1.18,1.75-2.13-19.37,4.6-37.49,13.52-51.71,27.22l-4.14,3.99c-.39.37-.7.67-1.08,1.07l-3.24,3.35-.65.89ZM314.33,301.24c-.76-.78-1.28-1.67-2.22-2.14-1.11-1.18-2.14-2.2-3.36-3.3-14.68-13.22-32.31-22.63-51.73-27.24.65,1.24,1.65,1.99,2.58,3.03,12.68,14.16,22.88,30.15,30.28,47.93,9.87-3.96,19.12-8.71,27.95-14.41-.19-.43-.47-.68-.7-1.03l-2.8-2.85ZM156.58,374.15c-.27-1.24.05-2.18.11-3.34,1.05-13.73,3.89-27.15,8.21-40.21-11.17-4.46-21.54-9.89-31.31-16.27-13.03,18-20.62,39.1-22.14,61.17.19.83-.15,1.39-.18,2.16h45.07c-.07-1.35-.15-2.35.25-3.51ZM302.73,377.66h44.98c-.15-.95-.38-1.82-.14-2.8-.4-1.07-.18-2.04-.39-3.14-2.07-20.77-9.53-40.41-21.8-57.4-9.8,6.42-20.28,11.87-31.34,16.29,4.44,13.21,7.15,26.52,8.24,40.19.04,1.17.38,2.1.11,3.25.43,1.19.21,2.37.34,3.6ZM223.51,342.89c-1.08.09-1.75-.15-2.56-.21-1.29-.09-2.56.13-3.82-.3-1.07.22-1.94-.02-3.04-.12-12.96-1.13-25.65-3.71-38.02-7.67-4.03,11.96-6.46,24.05-7.56,36.45-.11,1.21.02,2.25-.33,3.4.12,1.11.12,2.14-.13,3.22h55.46s0-34.77,0-34.77ZM235.47,377.66h55.45c-.25-1.08-.25-2.11-.13-3.22-.34-1.15-.23-2.2-.33-3.4-1.1-12.4-3.53-24.48-7.55-36.45-12.37,3.95-25.06,6.55-38.02,7.66-1.1.09-1.97.34-3.04.12-1.26.44-2.52.21-3.82.31-.87.07-1.64.3-2.56.2l.02,34.78ZM156.76,398.74c-.06-1.05,0-1.7-.31-2.51.19-1.11-.11-2.13-.13-3.2l-.05-3.42h-45c.04.77.38,1.33.18,2.17,1.54,22.03,9.1,43.2,22.16,61.15,9.92-6.46,20.03-11.74,30.92-16.11-4.04-12.5-6.66-25.05-7.76-38.08ZM216.87,424.78c1.46-.1,2.67-.31,4.09-.12.84-.32,1.65-.27,2.55-.28v-34.78s-55.44,0-55.44,0c-.18.82,0,1.56.2,2.33-.15,1.49.02,2.77.14,4.31.97,12.41,3.33,24.58,7.25,36.55,13.53-4.35,27.2-7.01,41.19-8.02ZM290.36,398.4l.19-2.63c.09-1.27.35-2.51.12-3.83.23-.79.39-1.52.22-2.34h-55.43s0,34.77,0,34.77c.9,0,1.71-.03,2.55.28,1.5-.19,2.77.03,4.31.14,13.92,1.01,27.52,3.66,40.97,7.99,3.69-11.28,6.24-22.69,7.08-34.39ZM294.43,436.82c11.14,4.46,21.32,9.84,30.94,16.11,12.83-17.72,20.39-38.4,22.05-60.13.14-1.13-.01-2.09.29-3.19h-45.01s-.05,3.42-.05,3.42c-.02,1.07-.32,2.09-.12,3.2-.4.93-.18,1.78-.34,2.77-1.12,12.86-3.7,25.37-7.75,37.81ZM221.01,501.56l2.49.29v-65.48c-2.63-.26-3.95.33-6.19.13-.93.35-1.78.24-2.77.34-11.83,1.1-23.34,3.44-34.78,7.08,6.81,16.63,16.53,31.95,28.56,45.35.84.93,1.66,1.59,2.37,2.61,1.17,1.26,9.44,9.58,10.33,9.68ZM250.81,489.07c12.21-13.13,21.51-28.43,28.4-45.16-12.02-3.89-24.46-6.27-37.13-7.3-1.21-.1-2.26.05-3.41-.31l-3.21.06v65.53s2.5-.33,2.5-.33c.97-.13,9.05-8.41,10.28-9.74l2.57-2.76ZM146.1,467.53l3.89,3.73c14.08,13.5,31.88,22.44,50.67,27.13-13.69-14.94-24.53-32-32.04-50.49-9.7,3.98-18.79,8.62-27.5,14.25.75,1.14,1.69,2,2.63,2.95l2.35,2.43ZM313.82,466.57l3.19-3.29.84-1.12c-8.76-5.66-17.93-10.35-27.51-14.25-7.62,18.69-18.46,35.7-32.04,50.49,18.92-4.71,36.26-14.08,50.66-27.14l3.51-3.34c.46-.44.83-.82,1.34-1.35Z"/>
      <g>
        <g>
          <path d="M230.84,115.6l38.45,48.63c.09.11.17.22.26.32,9.02,10.91,24.01,17.16,41.14,17.16,12.51,0,24.01-3.36,32.91-9.34l-.08,25.68c-36.08-6.11-72.8-9.29-109.33-9.48-1.13,0-2.26,0-3.39,0-37.68,0-75.54,3.19-112.75,9.49l-.13-25.99c8.95,6.17,20.63,9.64,33.34,9.64,17.2,0,32.24-6.3,41.26-17.28.09-.11.18-.22.27-.33l38.06-48.51M230.78,84.9l-52.96,67.49c-5.68,6.92-16.1,10.34-26.58,10.34-11.3,0-22.68-3.97-28.3-11.82l-24.4-51.34.55,110.21c0,2.58,1.04,4.91,2.73,6.59,2.67,2.67,5.97,2.73,6.59,2.73,33.58-6.38,74.96-11.52,122.36-11.52,1.09,0,2.19,0,3.29,0,45.92.23,86.14,5.26,119.07,11.51,5.15,0,9.33-4.18,9.33-9.33l.36-110.21-23.76,51.26c-5.62,7.89-17.04,11.9-28.39,11.9-10.44,0-20.81-3.39-26.5-10.27l-53.41-67.55h0Z"/>
          <circle cx="230.78" cy="74.84" r="21.99"/>
          <path d="M230.78,141.59c-9.03,0-36,39.49-30.77,39.72.16,0,.48,0,.94-.02,19.88-.8,39.78-.8,59.66,0,.46.02.78.03.94.02,5.23-.23-21.74-39.72-30.77-39.72Z"/>
          <circle cx="355.76" cy="103.99" r="21.99"/>
          <circle cx="103.36" cy="103.99" r="21.99"/>
        </g>
        <path d="M361.79,229.47"/>
        <path d="M103.36,229.47"/>
      </g>
      <g>
        <path d="M352.16,295.35c-34.63-38.61-78.62-59.64-122.62-59.45-44-.12-87.99,20.99-122.62,59.6-4.41,4.88-7.8,4.97-7.81-.18,0-.61,0-1.82,0-1.82.13-17.45.26-34.89.39-52.34.04-5.62,4.55-11.16,10.11-12.3,79.26-16.23,160.99-16.2,240.24.08,5.59,1.15,10.11,6.74,10.11,12.38,0,16.67,0,48.26,0,52.03v1.82c0,5.16-3.4,5.07-7.81.19Z"/>
        <path class="st0" d="M345.21,266.43v-23.35c-15.35-3.03-30.78-5.44-46.27-7.25,15.49,9.59,30.92,19.8,46.27,30.61Z"/>
        <path class="st0" d="M114.61,266.28v-23.35c15.35-3.01,30.79-5.4,46.27-7.2-15.49,9.57-30.93,19.76-46.27,30.55Z"/>
      </g>
    </g>
    <g>
      <path class="st1" d="M512.91,144.43v16.61h-33.05v107.53h-20.36v-107.53h-33.22v-16.61h86.63Z"/>
      <path class="st1" d="M622.95,226.95h-75.2c.59,7.86,3.51,14.17,8.75,18.93,5.24,4.76,11.67,7.15,19.29,7.15,10.95,0,18.69-4.58,23.22-13.75h21.97c-2.98,9.05-8.37,16.46-16.17,22.24-7.8,5.78-17.48,8.66-29.03,8.66-9.41,0-17.83-2.11-25.28-6.34-7.44-4.23-13.28-10.18-17.51-17.86-4.23-7.68-6.34-16.58-6.34-26.71s2.05-19.02,6.16-26.7,9.88-13.6,17.33-17.77c7.44-4.17,15.99-6.25,25.63-6.25s17.56,2.03,24.83,6.07c7.26,4.05,12.92,9.74,16.97,17.06,4.05,7.32,6.07,15.75,6.07,25.28,0,3.69-.24,7.03-.71,10ZM602.4,210.52c-.12-7.5-2.8-13.51-8.04-18.04-5.24-4.52-11.73-6.79-19.47-6.79-7.03,0-13.04,2.23-18.04,6.7s-7.98,10.51-8.93,18.13h54.48Z"/>
      <path class="st1" d="M675.91,172.74c4.94-2.8,10.81-4.2,17.59-4.2v21.08h-5.18c-7.98,0-14.02,2.03-18.13,6.07-4.11,4.05-6.16,11.08-6.16,21.08v51.8h-20.36v-98.42h20.36v14.29c2.98-5,6.94-8.9,11.88-11.7Z"/>
      <path class="st1" d="M744.5,172.74c4.94-2.8,10.81-4.2,17.59-4.2v21.08h-5.18c-7.98,0-14.02,2.03-18.13,6.07-4.11,4.05-6.16,11.08-6.16,21.08v51.8h-20.36v-98.42h20.36v14.29c2.98-5,6.94-8.9,11.88-11.7Z"/>
      <path class="st1" d="M780.22,192.66c4.11-7.62,9.7-13.54,16.79-17.77,7.08-4.23,14.92-6.34,23.49-6.34,7.74,0,14.5,1.52,20.27,4.56,5.77,3.04,10.39,6.82,13.84,11.34v-14.29h20.54v98.42h-20.54v-14.65c-3.46,4.64-8.16,8.52-14.11,11.61-5.96,3.09-12.74,4.64-20.36,4.64-8.46,0-16.2-2.17-23.22-6.52-7.03-4.35-12.59-10.42-16.7-18.22-4.11-7.8-6.16-16.64-6.16-26.53s2.05-18.64,6.16-26.26ZM850.42,201.59c-2.8-5-6.46-8.81-10.99-11.43-4.53-2.62-9.41-3.93-14.65-3.93s-10.12,1.28-14.65,3.84c-4.53,2.56-8.19,6.31-10.99,11.25-2.8,4.94-4.2,10.81-4.2,17.59s1.4,12.74,4.2,17.86c2.8,5.12,6.49,9.02,11.07,11.7,4.58,2.68,9.44,4.02,14.56,4.02s10.12-1.31,14.65-3.93c4.52-2.62,8.19-6.46,10.99-11.52,2.8-5.06,4.2-10.99,4.2-17.77s-1.4-12.68-4.2-17.68Z"/>
      <path class="st1" d="M434.41,373.54c5.65-9.65,13.34-17.18,23.04-22.6,9.7-5.42,20.33-8.13,31.88-8.13,13.22,0,24.98,3.25,35.28,9.74,10.3,6.49,17.77,15.69,22.42,27.6h-24.47c-3.22-6.55-7.68-11.43-13.4-14.65s-12.33-4.82-19.83-4.82c-8.22,0-15.54,1.85-21.97,5.54-6.43,3.69-11.46,8.99-15.09,15.9-3.63,6.91-5.45,14.95-5.45,24.11s1.81,17.21,5.45,24.11c3.63,6.91,8.66,12.24,15.09,15.99,6.43,3.75,13.75,5.63,21.97,5.63,7.5,0,14.11-1.61,19.83-4.82,5.72-3.22,10.18-8.1,13.4-14.65h24.47c-4.64,11.91-12.12,21.08-22.42,27.51-10.3,6.43-22.06,9.65-35.28,9.65-11.67,0-22.33-2.71-31.97-8.13-9.65-5.42-17.3-12.95-22.95-22.6-5.66-9.65-8.48-20.54-8.48-32.69s2.83-23.04,8.48-32.69Z"/>
      <path class="st1" d="M603.03,372.74c4.94-2.8,10.81-4.2,17.59-4.2v21.08h-5.18c-7.98,0-14.02,2.03-18.13,6.07-4.11,4.05-6.16,11.08-6.16,21.08v51.8h-20.36v-98.42h20.36v14.29c2.98-5,6.94-8.9,11.88-11.7Z"/>
      <path class="st1" d="M638.75,392.66c4.11-7.62,9.7-13.54,16.79-17.77,7.08-4.23,14.92-6.34,23.49-6.34,7.74,0,14.5,1.52,20.27,4.56,5.77,3.04,10.39,6.82,13.84,11.34v-14.29h20.54v98.42h-20.54v-14.65c-3.46,4.64-8.16,8.52-14.11,11.61-5.96,3.09-12.74,4.64-20.36,4.64-8.46,0-16.2-2.17-23.22-6.52-7.03-4.35-12.59-10.42-16.7-18.22-4.11-7.8-6.16-16.64-6.16-26.53s2.05-18.64,6.16-26.26ZM708.95,401.59c-2.8-5-6.46-8.81-10.99-11.43-4.53-2.62-9.41-3.93-14.65-3.93s-10.12,1.28-14.65,3.84c-4.53,2.56-8.19,6.31-10.99,11.25-2.8,4.94-4.2,10.81-4.2,17.59s1.4,12.74,4.2,17.86c2.8,5.12,6.49,9.02,11.07,11.7,4.58,2.68,9.44,4.02,14.56,4.02s10.12-1.31,14.65-3.93c4.52-2.62,8.19-6.46,10.99-11.52,2.8-5.06,4.2-10.99,4.2-17.77s-1.4-12.68-4.2-17.68Z"/>
      <path class="st1" d="M759.86,392.57c4.11-7.68,9.79-13.6,17.06-17.77,7.26-4.17,15.6-6.25,25.01-6.25,11.91,0,21.76,2.83,29.56,8.49,7.8,5.66,13.07,13.73,15.81,24.2h-21.97c-1.79-4.88-4.64-8.69-8.57-11.43-3.93-2.74-8.87-4.11-14.83-4.11-8.34,0-14.98,2.95-19.92,8.84-4.94,5.89-7.41,14.14-7.41,24.74s2.47,18.88,7.41,24.83c4.94,5.96,11.58,8.93,19.92,8.93,11.79,0,19.59-5.18,23.4-15.54h21.97c-2.86,10-8.22,17.95-16.08,23.85s-17.63,8.84-29.29,8.84c-9.41,0-17.75-2.11-25.01-6.34-7.26-4.23-12.95-10.18-17.06-17.86-4.11-7.68-6.16-16.58-6.16-26.71s2.05-19.02,6.16-26.7Z"/>
      <path class="st1" d="M885.16,463.84c-7.5-4.23-13.4-10.18-17.68-17.86-4.29-7.68-6.43-16.58-6.43-26.71s2.2-18.87,6.61-26.61c4.4-7.74,10.42-13.69,18.04-17.86,7.62-4.17,16.13-6.25,25.54-6.25s17.92,2.08,25.54,6.25c7.62,4.17,13.63,10.12,18.04,17.86,4.4,7.74,6.61,16.61,6.61,26.61s-2.26,18.88-6.79,26.62c-4.53,7.74-10.69,13.73-18.49,17.95-7.8,4.23-16.41,6.34-25.81,6.34s-17.68-2.11-25.19-6.34ZM925.08,448.74c4.58-2.5,8.31-6.25,11.16-11.25,2.86-5,4.29-11.07,4.29-18.22s-1.37-13.19-4.11-18.13c-2.74-4.94-6.37-8.66-10.9-11.16-4.53-2.5-9.41-3.75-14.65-3.75s-10.09,1.25-14.56,3.75c-4.47,2.5-8.01,6.22-10.63,11.16-2.62,4.94-3.93,10.99-3.93,18.13,0,10.6,2.71,18.79,8.13,24.56,5.42,5.78,12.24,8.66,20.45,8.66,5.24,0,10.15-1.25,14.74-3.75Z"/>
      <path class="st1" d="M1019.66,450.35l27.87-80.2h21.61l-37.51,98.42h-24.29l-37.33-98.42h21.79l27.87,80.2Z"/>
      <path class="st1" d="M1085.57,353.36c-2.5-2.5-3.75-5.6-3.75-9.29s1.25-6.79,3.75-9.29c2.5-2.5,5.6-3.75,9.29-3.75s6.61,1.25,9.11,3.75c2.5,2.5,3.75,5.6,3.75,9.29s-1.25,6.79-3.75,9.29c-2.5,2.5-5.54,3.75-9.11,3.75s-6.79-1.25-9.29-3.75ZM1104.86,370.15v98.42h-20.36v-98.42h20.36Z"/>
      <path class="st1" d="M1131.03,392.66c4.11-7.62,9.7-13.54,16.79-17.77,7.08-4.23,14.92-6.34,23.49-6.34,7.74,0,14.5,1.52,20.27,4.56,5.77,3.04,10.39,6.82,13.84,11.34v-14.29h20.54v98.42h-20.54v-14.65c-3.46,4.64-8.16,8.52-14.11,11.61-5.96,3.09-12.74,4.64-20.36,4.64-8.46,0-16.2-2.17-23.22-6.52-7.03-4.35-12.59-10.42-16.7-18.22-4.11-7.8-6.16-16.64-6.16-26.53s2.05-18.64,6.16-26.26ZM1201.23,401.59c-2.8-5-6.46-8.81-10.99-11.43-4.53-2.62-9.41-3.93-14.65-3.93s-10.12,1.28-14.65,3.84c-4.53,2.56-8.19,6.31-10.99,11.25-2.8,4.94-4.2,10.81-4.2,17.59s1.4,12.74,4.2,17.86c2.8,5.12,6.49,9.02,11.07,11.7,4.58,2.68,9.44,4.02,14.56,4.02s10.12-1.31,14.65-3.93c4.52-2.62,8.19-6.46,10.99-11.52,2.8-5.06,4.2-10.99,4.2-17.77s-1.4-12.68-4.2-17.68Z"/>
      <path class="st1" d="M1323.23,373.36c6.13,3.22,10.92,7.98,14.38,14.29,3.45,6.31,5.18,13.93,5.18,22.86v58.05h-20.18v-55.02c0-8.81-2.21-15.57-6.61-20.27-4.41-4.7-10.42-7.06-18.04-7.06s-13.66,2.35-18.13,7.06c-4.47,4.71-6.7,11.46-6.7,20.27v55.02h-20.36v-98.42h20.36v11.25c3.33-4.05,7.59-7.2,12.77-9.47,5.18-2.26,10.69-3.39,16.52-3.39,7.74,0,14.67,1.61,20.81,4.82Z"/>
      <path class="st1" d="M1457.82,370.15v98.42h-20.36v-11.61c-3.22,4.05-7.41,7.23-12.59,9.56-5.18,2.32-10.69,3.48-16.52,3.48-7.74,0-14.68-1.61-20.81-4.82-6.13-3.22-10.96-7.98-14.47-14.29-3.51-6.31-5.27-13.93-5.27-22.86v-57.87h20.18v54.84c0,8.81,2.2,15.57,6.61,20.27,4.4,4.71,10.42,7.06,18.04,7.06s13.67-2.35,18.13-7.06c4.47-4.7,6.7-11.46,6.7-20.27v-54.84h20.36Z"/>
      <path class="st1" d="M1624.57,373.36c6.13,3.22,10.95,7.98,14.47,14.29,3.51,6.31,5.27,13.93,5.27,22.86v58.05h-20.18v-55.02c0-8.81-2.21-15.57-6.61-20.27-4.41-4.7-10.42-7.06-18.04-7.06s-13.66,2.35-18.13,7.06c-4.47,4.71-6.7,11.46-6.7,20.27v55.02h-20.18v-55.02c0-8.81-2.21-15.57-6.61-20.27-4.41-4.7-10.42-7.06-18.04-7.06s-13.66,2.35-18.13,7.06c-4.47,4.71-6.7,11.46-6.7,20.27v55.02h-20.36v-98.42h20.36v11.25c3.33-4.05,7.56-7.2,12.68-9.47,5.12-2.26,10.6-3.39,16.43-3.39,7.86,0,14.88,1.67,21.08,5,6.19,3.33,10.95,8.16,14.29,14.47,2.98-5.95,7.62-10.69,13.93-14.2,6.31-3.51,13.1-5.27,20.36-5.27,7.74,0,14.68,1.61,20.81,4.82Z"/>
    </g>
  </g>
</svg>